<svg
   xmlns:dc="http://purl.org/dc/elements/1.1/"
   xmlns:cc="http://creativecommons.org/ns#"
   xmlns:rdf="http://www.w3.org/1999/02/22-rdf-syntax-ns#"
   xmlns:svg="http://www.w3.org/2000/svg"
   xmlns="http://www.w3.org/2000/svg"
   id="svg3758"
   version="1.1"
   viewBox="0 0 428.09583 129.64583"
   height="490"
   width="1618">
  <defs
     id="defs3752" />
  <metadata
     id="metadata3755">
    <rdf:RDF>
      <cc:Work
         rdf:about="">
        <dc:format>image/svg+xml</dc:format>
        <dc:type
           rdf:resource="http://purl.org/dc/dcmitype/StillImage" />
        <dc:title></dc:title>
      </cc:Work>
    </rdf:RDF>
  </metadata>
  <g
     transform="translate(0,-167.35418)"
     id="layer1">
    <g
       id="g4615"
       transform="rotate(90,54.174561,107.0659)">
      <g
         id="g4646"
         transform="matrix(0,0.67134601,-0.67134601,0,117.89954,102.16559)">
        <g
           transform="translate(-45.885518,-3.378075)"
           id="g4696">
          <text
             transform="scale(-1)"
             id="text846"
             y="-45.889572"
             x="-34.054123"
             style="font-style:normal;font-variant:normal;font-weight:normal;font-stretch:normal;font-size:15.76434994px;line-height:1.25;font-family:'Noto Sans JP Bold';-inkscape-font-specification:'Noto Sans JP Bold, ';letter-spacing:0px;word-spacing:0px;fill:#000000;fill-opacity:1;stroke:none;stroke-width:0.39410874"
             xml:space="preserve"><tspan
               style="font-style:normal;font-variant:normal;font-weight:normal;font-stretch:normal;font-family:'Noto Sans JP Bold';-inkscape-font-specification:'Noto Sans JP Bold, ';stroke-width:0.39410874"
               y="-30.0464"
               x="-34.054123"
               id="tspan844" /></text>
          <g
             transform="translate(-55.569371,78.033564)"
             id="g1414">
            <g
               id="g1384" />
            <g
               id="g911">
              <path
                 style="font-style:normal;font-variant:normal;font-weight:normal;font-stretch:normal;font-size:15.76434994px;line-height:1.25;font-family:'Noto Sans JP Bold';-inkscape-font-specification:'Noto Sans JP Bold, ';letter-spacing:0px;word-spacing:0px;fill:#fefefe;fill-opacity:1;stroke:none;stroke-width:4.01500893"
                 d="m 172.78288,-90.04289 v -128.15876 h -18.46747 l -2.08592,9.47293 h -0.47835 c -7.38762,-7.54821 -16.06003,-11.7235 -24.09005,-11.7235 -19.75385,0 -38.228828,17.82724 -38.228828,48.82311 0,27.46266 13.329188,45.60801 35.492038,45.60801 8.83302,0 17.83133,-4.33497 24.89775,-10.75898 l -0.48618,14.45246 v 32.28473 z m -43.36523,-48.87799 h -0.19593 c -0.0321,-14.90251 -5.98421,-28.42045 -15.6287,-38.31511 -0.45763,-0.46956 -0.80947,-0.92325 -1.11356,-1.37233 a 22.0288,22.0288 0 0 1 -5.19129,-14.17017 22.0288,22.0288 0 0 1 22.03549,-22.02763 22.0288,22.0288 0 0 1 22.02767,22.02763 22.0288,22.0288 0 0 1 -5.27753,14.29564 c -0.28306,0.4033 -0.60583,0.80673 -1.02728,1.23899 -9.64562,9.89543 -15.6002,23.41854 -15.62875,38.32298 z"
                 id="path1354" />
              <g
                 id="g1364"
                 transform="matrix(10.187566,0,0,10.187566,-404.80071,260.81633)">
                <path
                   id="path1360"
                   transform="matrix(-0.39410874,0,0,-0.39410874,189.44956,185.05784)"
                   d="m 374.58789,565.9082 c -2.4,0 -4.71961,1.27891 -6.59961,2.87891 h -0.16016 l -0.40039,-2.32031 h -4.80078 l 0.002,31 h 5.83984 v -6.79883 l -0.16016,-3.67969 c 1.72,1.56 3.5986,2.43945 5.5586,2.43945 4.92,0 9.52148,-4.43914 9.52148,-12.11914 0,-6.88 -3.28078,-11.40039 -8.80078,-11.40039 z m -0.93945,3.21289 h 0.0488 c 0.008,3.7117 1.49046,7.07855 3.89257,9.54297 0.11398,0.11695 0.20161,0.22995 0.27735,0.3418 a 5.4866131,5.4866131 0 0 1 1.29297,3.5293 5.4866131,5.4866131 0 0 1 -5.48828,5.48632 5.4866131,5.4866131 0 0 1 -5.48633,-5.48632 5.4866131,5.4866131 0 0 1 1.31445,-3.56055 c 0.0705,-0.10045 0.15089,-0.20093 0.25586,-0.30859 2.40239,-2.46461 3.88547,-5.83275 3.89258,-9.54493 z"
                   style="font-style:normal;font-variant:normal;font-weight:normal;font-stretch:normal;font-size:15.76434994px;line-height:1.25;font-family:'Noto Sans JP Bold';-inkscape-font-specification:'Noto Sans JP Bold, ';letter-spacing:0px;word-spacing:0px;fill:#fefefe;fill-opacity:1;stroke:none;stroke-width:1" />
              </g>
              <path
                 style="opacity:1;fill:#ffffff;fill-opacity:1;stroke:none;stroke-width:0.2359048;stroke-miterlimit:4;stroke-dasharray:none;stroke-opacity:1"
                 d="m -117.58217,-134.02735 c 0.0316,-16.6022 6.66267,-31.65791 17.40702,-42.68052 0.469446,-0.48146 0.830697,-0.93828 1.146012,-1.3875 a 24.538103,24.538103 0 0 0 5.877421,-15.9213 24.538103,24.538103 0 0 0 -24.536853,-24.53678 24.538103,24.538103 0 0 0 -24.54088,24.53678 24.538103,24.538103 0 0 0 5.78326,15.78214 c 0.33873,0.50021 0.73034,1.00765 1.24012,1.53074 10.74313,11.02179 17.37207,26.07639 17.40701,42.67644 z"
                 id="path1366" />
              <path
                 id="path1368"
                 style="font-style:normal;font-variant:normal;font-weight:normal;font-stretch:normal;font-size:15.76434994px;line-height:1.25;font-family:'Noto Sans JP Bold';-inkscape-font-specification:'Noto Sans JP Bold, ';letter-spacing:0px;word-spacing:0px;fill:#fefefe;fill-opacity:1;stroke:none;stroke-width:4.01500893"
                 d="m -36.101256,-217.93262 h -23.447651 v 53.64052 c -5.139209,13.00862 -13.651033,17.66603 -20.717444,17.66603 -3.693808,0 -6.263418,-0.48177 -9.314818,-1.4454 l -4.175619,20.39625 c 2.730207,1.1242 5.621021,1.9272 10.599633,1.9272 9.314818,0 18.950839,-6.42401 25.53545,-18.14784 h 0.642428 l 1.605999,15.89944 h 19.272042 z" />
              <path
                 id="path1372"
                 style="font-style:normal;font-variant:normal;font-weight:normal;font-stretch:normal;font-size:15.76434994px;line-height:1.25;font-family:'Noto Sans JP Bold';-inkscape-font-specification:'Noto Sans JP Bold, ';letter-spacing:0px;word-spacing:0px;fill:#fefefe;fill-opacity:1;stroke:none;stroke-width:4.01500893"
                 d="m -175.2188,-217.93262 h -27.30206 l -30.03227,89.9362 h 22.64465 l 13.16923,-44.80751 c 2.40901,-8.83301 4.97862,-18.14783 7.22701,-27.30205 h 0.80299 c 2.409,9.15422 4.97861,18.46904 7.22702,27.30205 l 13.16923,44.80751 h 23.76884 z" />
              <path
                 id="path1374"
                 style="font-style:normal;font-variant:normal;font-weight:normal;font-stretch:normal;font-size:15.76434994px;line-height:1.25;font-family:'Noto Sans JP Bold';-inkscape-font-specification:'Noto Sans JP Bold, ';letter-spacing:0px;word-spacing:0px;fill:#fefefe;fill-opacity:1;stroke:none;stroke-width:4.01500893"
                 d="m -285.28778,-220.18103 c -11.24202,0 -22.64465,3.85441 -31.47767,9.95723 l 8.03002,14.45402 c 6.42401,-4.01501 12.84803,-6.26341 20.23564,-6.26341 13.32983,0 22.96586,7.70881 24.89306,22.48405 h -55.40712 c -0.6424,2.0878 -1.12421,6.42401 -1.12421,10.76022 0,24.89306 12.84803,43.0409 37.58049,43.0409 21.52045,0 41.91669,-18.14784 41.91669,-47.37711 0,-29.55046 -19.59324,-47.0559 -44.6469,-47.0559 z m 22.00225,56.21012 c -1.7666,13.16923 -10.11782,19.91445 -19.59324,19.91445 -11.56323,0 -17.02364,-7.70882 -17.02364,-19.91445 z" />
              <path
                 id="path1378"
                 style="font-style:normal;font-variant:normal;font-weight:normal;font-stretch:normal;font-size:15.76434994px;line-height:1.25;font-family:'Noto Sans JP Bold';-inkscape-font-specification:'Noto Sans JP Bold, ';letter-spacing:0px;word-spacing:0px;fill:#fefefe;fill-opacity:1;stroke:none;stroke-width:4.01500893"
                 d="m -336.55479,-221.21539 h -23.44765 c -5.01407,29.5892 1.34177,60.05926 4.1756,89.9362 h 19.27204 z" />
              <path
                 id="path1380"
                 d="m -363.09003,-147.90591 c -12.92188,7.42751 -27.60358,9.03027 -40.99608,5.62463 -0.58512,-0.14884 -1.10232,-0.22474 -1.59315,-0.26814 a 22.0288,22.0288 0 0 0 -15.01645,2.5771 22.0288,22.0288 0 0 0 -8.06264,30.09034 22.0288,22.0288 0 0 0 30.09215,8.06585 22.0288,22.0288 0 0 0 9.67413,-11.58039 c 0.23684,-0.48798 0.45561,-1.02016 0.63346,-1.65126 3.74675,-13.29974 12.47568,-25.21105 25.36595,-32.68946 z"
                 style="opacity:1;fill:#ffffff;fill-opacity:1;stroke:none;stroke-width:0.21178086;stroke-miterlimit:4;stroke-dasharray:none;stroke-opacity:1" />
              <path
                 id="path1390"
                 d="m -117.73255,-80.82854 c 0.0163,-8.518965 3.41876,-16.24439 8.93194,-21.90034 0.24083,-0.24705 0.42624,-0.48147 0.58802,-0.71201 a 12.591057,12.591057 0 0 0 3.01584,-8.16957 12.591057,12.591057 0 0 0 -12.59042,-12.59039 12.591057,12.591057 0 0 0 -12.59248,12.59039 12.591057,12.591057 0 0 0 2.96752,8.09816 c 0.1738,0.25663 0.3748,0.51702 0.63631,0.78546 5.51255,5.65553 8.91401,13.380394 8.93194,21.898249 z"
                 style="opacity:1;fill:#ffffff;fill-opacity:1;stroke:none;stroke-width:0.12104815;stroke-miterlimit:4;stroke-dasharray:none;stroke-opacity:1" />
            </g>
          </g>
        </g>
      </g>
    </g>
  </g>
</svg>
